<?xml version="1.0" encoding="UTF-8"?>
<svg width="127px" height="131px" viewBox="0 0 127 131" version="1.1" xmlns="http://www.w3.org/2000/svg" xmlns:xlink="http://www.w3.org/1999/xlink">
    <!-- Generator: Sketch 43.2 (39069) - http://www.bohemiancoding.com/sketch -->
    <title>Jar and stars</title>
    <desc>Created with Sketch.</desc>
    <defs></defs>
    <g id="Page-1" stroke="none" stroke-width="1" fill="none" fill-rule="evenodd">
        <g id="SVGJar-Logo" transform="translate(-3.000000, 0.000000)">
            <g id="Jar-and-stars" transform="translate(3.000000, 0.000000)">
                <g id="Jar" transform="translate(4.000000, 18.000000)">
                    <g transform="translate(16.000000, 0.000000)" fill="#1585EB">
                        <path d="M1.99067798,105 L7,105 L7,104.837715 C9.54052536,107.405106 13.0811776,109 16.9974769,109 L69.0025231,109 C76.7373209,109 83,102.791389 83,95.1409919 L83,35.3486208 C83,33.2334206 79.2948993,26.8169322 75.3609459,23.5359207 L77.9229353,20.4640793 C82.6932118,24.4426043 87,31.9010941 87,35.3486208 L87,95.1409919 C87,105.008329 78.9387333,113 69.0025231,113 L16.9974769,113 C10.7351442,113 5.21501947,109.820581 1.99067798,105 Z M0.665626159,29 C2.44162019,25.9424665 5.5362652,23.0364115 9.45361042,20.3504913 L11.7155752,23.6495087 C9.19821539,25.3755315 7.09710051,27.1971259 5.58899051,29 L0.665626159,29 Z" id="Combined-Shape" fill-rule="nonzero"></path>
                        <path d="M9,6.99525338 C9,5.33895923 10.3404036,4 12.0057363,4 L73.9942637,4 C75.655392,4 77,5.34171546 77,6.99525338 L77,17.0047466 C77,18.6610408 75.6595964,20 73.9942637,20 L12.0057363,20 C10.344608,20 9,18.6582845 9,17.0047466 L9,6.99525338 L9,6.99525338 Z M5,6.99525338 L5,17.0047466 C5,20.8693541 8.13739498,24 12.0057363,24 L73.9942637,24 C77.8677705,24 81,20.8711458 81,17.0047466 L81,6.99525338 C81,3.13064585 77.862605,0 73.9942637,0 L12.0057363,0 C8.13222948,0 5,3.12885423 5,6.99525338 L5,6.99525338 Z" id="Rectangle-13" fill-rule="nonzero"></path>
                        <path d="M69,14 L67,14 C65.894,14 65,13.106 65,12 C65,10.894 65.894,10 67,10 L69,10 C70.106,10 71,10.894 71,12 C71,13.106 70.106,14 69,14" id="Fill-3568"></path>
                        <path d="M58,14 L40,14 C38.894,14 38,13.106 38,12 C38,10.894 38.894,10 40,10 L58,10 C59.106,10 60,10.894 60,12 C60,13.106 59.106,14 58,14" id="Fill-3569"></path>
                    </g>
                    <g id="Code" transform="translate(46.000000, 67.000000) scale(-1, 1) translate(-46.000000, -67.000000) translate(0.000000, 33.000000)">
                        <g id="Blue">
                            <path d="M40,4 L14,4 C12.894,4 12,3.106 12,2 C12,0.894 12.894,0 14,0 L40,0 C41.106,0 42,0.894 42,2 C42,3.106 41.106,4 40,4 L40,4 Z" id="Fill-3546" fill="#298EEA"></path>
                            <path d="M90,12 L60,12 C58.894,12 58,11.106 58,10 C58,8.894 58.894,8 60,8 L90,8 C91.106,8 92,8.894 92,10 C92,11.106 91.106,12 90,12 L90,12 Z" id="Fill-3549" fill="#298EEA"></path>
                            <path d="M32,20 L14,20 C12.894,20 12,19.106 12,18 C12,16.894 12.894,16 14,16 L32,16 C33.106,16 34,16.894 34,18 C34,19.106 33.106,20 32,20 L32,20 Z" id="Fill-3552" fill="#1585EB"></path>
                            <path d="M52.125,36 L25.875,36 C24.838125,36 24,35.106 24,34 C24,32.894 24.838125,32 25.875,32 L52.125,32 C53.161875,32 54,32.894 54,34 C54,35.106 53.161875,36 52.125,36 L52.125,36 Z" id="Fill-3558" fill="#298EEA"></path>
                            <path d="M38,52 L12,52 C10.894,52 10,51.106 10,50 C10,48.894 10.894,48 12,48 L38,48 C39.106,48 40,48.894 40,50 C40,51.106 39.106,52 38,52 L38,52 Z" id="Fill-3563" fill="#298EEA"></path>
                            <path d="M82,4 L74,4 C72.894,4 72,3.106 72,2 C72,0.894 72.894,0 74,0 L82,0 C83.106,0 84,0.894 84,2 C84,3.106 83.106,4 82,4 L82,4 Z" id="Fill-3566" fill="#298EEA"></path>
                            <path d="M82,68 L74,68 C72.894,68 72,67.106 72,66 C72,64.894 72.894,64 74,64 L82,64 C83.106,64 84,64.894 84,66 C84,67.106 83.106,68 82,68 L82,68 Z" id="Fill-3566" fill="#298EEA"></path>
                            <path d="M44,68 L40,68 C38.894,68 38,67.106 38,66 C38,64.894 38.894,64 40,64 L44,64 C45.106,64 46,64.894 46,66 C46,67.106 45.106,68 44,68 L44,68 Z" id="Fill-3570" fill="#1585EB"></path>
                            <path d="M6,68 L2,68 C0.894,68 0,67.106 0,66 C0,64.894 0.894,64 2,64 L6,64 C7.106,64 8,64.894 8,66 C8,67.106 7.106,68 6,68 L6,68 Z" id="Fill-3570" fill="#1585EB"></path>
                            <path d="M6,4 L2,4 C0.894,4 0,3.106 0,2 C0,0.894 0.894,0 2,0 L6,0 C7.106,0 8,0.894 8,2 C8,3.106 7.106,4 6,4 L6,4 Z" id="Fill-3570" fill="#1585EB"></path>
                            <path d="M6,20 L2,20 C0.894,20 0,19.106 0,18 C0,16.894 0.894,16 2,16 L6,16 C7.106,16 8,16.894 8,18 C8,19.106 7.106,20 6,20 L6,20 Z" id="Fill-3570" fill="#1585EB"></path>
                            <path d="M68,60 L60,60 C58.894,60 58,59.106 58,58 C58,56.894 58.894,56 60,56 L68,56 C69.106,56 70,56.894 70,58 C70,59.106 69.106,60 68,60 L68,60 Z" id="Fill-3566" fill="#298EEA"></path>
                            <path d="M8.33333333,36 L1.66666667,36 C0.745,36 0,35.106 0,34 C0,32.894 0.745,32 1.66666667,32 L8.33333333,32 C9.255,32 10,32.894 10,34 C10,35.106 9.255,36 8.33333333,36 L8.33333333,36 Z" id="Fill-3566" fill="#298EEA"></path>
                        </g>
                        <g id="Green" transform="translate(0.000000, 16.000000)">
                            <path d="M80,4 L52,4 C50.894,4 50,3.106 50,2 C50,0.894 50.894,0 52,0 L80,0 C81.106,0 82,0.894 82,2 C82,3.106 81.106,4 80,4 L80,4 Z" id="Fill-3554" fill="#16C26C"></path>
                            <path d="M18.3333333,28 L1.66666667,28 C0.745,28 0,27.106 0,26 C0,24.894 0.745,24 1.66666667,24 L18.3333333,24 C19.255,24 20,24.894 20,26 C20,27.106 19.255,28 18.3333333,28 L18.3333333,28 Z" id="Fill-3556" fill="#16C26C"></path>
                            <path d="M18,20 L16,20 C14.894,20 14,19.106 14,18 C14,16.894 14.894,16 16,16 L18,16 C19.106,16 20,16.894 20,18 C20,19.106 19.106,20 18,20 L18,20 Z" id="Fill-3559" fill="#16C26C"></path>
                            <path d="M66,36 L46,36 C44.894,36 44,35.106 44,34 C44,32.894 44.894,32 46,32 L66,32 C67.106,32 68,32.894 68,34 C68,35.106 67.106,36 66,36 L66,36 Z" id="Fill-3564" fill="#16C26C"></path>
                            <path d="M32,52 L14,52 C12.894,52 12,51.106 12,50 C12,48.894 12.894,48 14,48 L32,48 C33.106,48 34,48.894 34,50 C34,51.106 33.106,52 32,52 L32,52 Z" id="Fill-3569" fill="#16C26C"></path>
                            <path d="M79.6,20 L60.4,20 C59.0728,20 58,19.106 58,18 C58,16.894 59.0728,16 60.4,16 L79.6,16 C80.9272,16 82,16.894 82,18 C82,19.106 80.9272,20 79.6,20 L79.6,20 Z" id="Fill-3557" fill="#16C26D"></path>
                        </g>
                        <g id="Red" transform="translate(0.000000, 8.000000)" fill="#FB6E52">
                            <path d="M72,20 L52,20 C50.894,20 50,19.106 50,18 C50,16.894 50.894,16 52,16 L72,16 C73.106,16 74,16.894 74,18 C74,19.106 73.106,20 72,20 L72,20 Z" id="Fill-3556"></path>
                            <path d="M52,4 L24,4 C22.894,4 22,3.106 22,2 C22,0.894 22.894,0 24,0 L52,0 C53.106,0 54,0.894 54,2 C54,3.106 53.106,4 52,4 L52,4 Z" id="Fill-3550"></path>
                            <path d="M88,44 L74,44 C72.894,44 72,43.106 72,42 C72,40.894 72.894,40 74,40 L88,40 C89.106,40 90,40.894 90,42 C90,43.106 89.106,44 88,44 L88,44 Z" id="Fill-3565"></path>
                            <path d="M66,60 L52,60 C50.894,60 50,59.106 50,58 C50,56.894 50.894,56 52,56 L66,56 C67.106,56 68,56.894 68,58 C68,59.106 67.106,60 66,60 L66,60 Z" id="Fill-3571"></path>
                            <path d="M16,52 L2,52 C0.894,52 0,51.106 0,50 C0,48.894 0.894,48 2,48 L16,48 C17.106,48 18,48.894 18,50 C18,51.106 17.106,52 16,52 L16,52 Z" id="Fill-3571"></path>
                            <path d="M16,4 L2,4 C0.894,4 0,3.106 0,2 C0,0.894 0.894,0 2,0 L16,0 C17.106,0 18,0.894 18,2 C18,3.106 17.106,4 16,4 L16,4 Z" id="Fill-3571"></path>
                            <path d="M16,20 L2,20 C0.894,20 0,19.106 0,18 C0,16.894 0.894,16 2,16 L16,16 C17.106,16 18,16.894 18,18 C18,19.106 17.106,20 16,20 L16,20 Z" id="Fill-3571"></path>
                        </g>
                        <g id="Yellow" fill="#FDC100">
                            <path d="M52,60 L24,60 C22.894,60 22,59.106 22,58 C22,56.894 22.894,56 24,56 L52,56 C53.106,56 54,56.894 54,58 C54,59.106 53.106,60 52,60 L52,60 Z" id="Fill-3567"></path>
                            <path d="M66.1666667,4 L47.8333333,4 C46.8195,4 46,3.106 46,2 C46,0.894 46.8195,0 47.8333333,0 L66.1666667,0 C67.1805,0 68,0.894 68,2 C68,3.106 67.1805,4 66.1666667,4 L66.1666667,4 Z" id="Fill-3547"></path>
                            <path d="M44,20 L40,20 C38.894,20 38,19.106 38,18 C38,16.894 38.894,16 40,16 L44,16 C45.106,16 46,16.894 46,18 C46,19.106 45.106,20 44,20 L44,20 Z" id="Fill-3553"></path>
                            <path d="M44.4,28 L23.6,28 C22.7152,28 22,27.106 22,26 C22,24.894 22.7152,24 23.6,24 L44.4,24 C45.2848,24 46,24.894 46,26 C46,27.106 45.2848,28 44.4,28 L44.4,28 Z" id="Fill-3555"></path>
                            <path d="M44,44 L26,44 C24.894,44 24,43.106 24,42 C24,40.894 24.894,40 26,40 L44,40 C45.106,40 46,40.894 46,42 C46,43.106 45.106,44 44,44 L44,44 Z" id="Fill-3560"></path>
                            <path d="M4,52 L2,52 C0.894,52 0,51.106 0,50 C0,48.894 0.894,48 2,48 L4,48 C5.106,48 6,48.894 6,50 C6,51.106 5.106,52 4,52 L4,52 Z" id="Fill-3568"></path>
                            <path d="M78,60 L76,60 C74.894,60 74,59.106 74,58 C74,56.894 74.894,56 76,56 L78,56 C79.106,56 80,56.894 80,58 C80,59.106 79.106,60 78,60 L78,60 Z" id="Fill-3568"></path>
                            <path d="M83.8823529,44 L52.1176471,44 C50.9465882,44 50,43.106 50,42 C50,40.894 50.9465882,40 52.1176471,40 L83.8823529,40 C85.0534118,40 86,40.894 86,42 C86,43.106 85.0534118,44 83.8823529,44 L83.8823529,44 Z" id="Fill-3562"></path>
                        </g>
                    </g>
                </g>
                <g id="Stars" fill="#FDC100">
                    <path d="M14,22 L14,19.9970301 C14,19.4530363 13.5522847,19 13,19 C12.4438648,19 12,19.4463856 12,19.9970301 L12,22 L9.99703014,22 C9.45303631,22 9,22.4477153 9,23 C9,23.5561352 9.4463856,24 9.99703014,24 L12,24 L12,26.0029699 C12,26.5469637 12.4477153,27 13,27 C13.5561352,27 14,26.5536144 14,26.0029699 L14,24 L16.0029699,24 C16.5469637,24 17,23.5522847 17,23 C17,22.4438648 16.5536144,22 16.0029699,22 L14,22 Z" id="Combined-Shape"></path>
                    <path d="M125,25 L125,23.990778 C125,23.4509752 124.552285,23 124,23 C123.443865,23 123,23.4435864 123,23.990778 L123,25 L121.990778,25 C121.450975,25 121,25.4477153 121,26 C121,26.5561352 121.443586,27 121.990778,27 L123,27 L123,28.009222 C123,28.5490248 123.447715,29 124,29 C124.556135,29 125,28.5564136 125,28.009222 L125,27 L126.009222,27 C126.549025,27 127,26.5522847 127,26 C127,25.4438648 126.556414,25 126.009222,25 L125,25 Z" id="Combined-Shape"></path>
                    <path d="M114,32 L114,30.990778 C114,30.4509752 113.552285,30 113,30 C112.443865,30 112,30.4435864 112,30.990778 L112,32 L110.990778,32 C110.450975,32 110,32.4477153 110,33 C110,33.5561352 110.443586,34 110.990778,34 L112,34 L112,35.009222 C112,35.5490248 112.447715,36 113,36 C113.556135,36 114,35.5564136 114,35.009222 L114,34 L115.009222,34 C115.549025,34 116,33.5522847 116,33 C116,32.4438648 115.556414,32 115.009222,32 L114,32 Z" id="Combined-Shape"></path>
                    <path d="M4,45 L4,43.990778 C4,43.4509752 3.55228475,43 3,43 C2.44386482,43 2,43.4435864 2,43.990778 L2,45 L0.990777969,45 C0.45097518,45 0,45.4477153 0,46 C0,46.5561352 0.443586406,47 0.990777969,47 L2,47 L2,48.009222 C2,48.5490248 2.44771525,49 3,49 C3.55613518,49 4,48.5564136 4,48.009222 L4,47 L5.00922203,47 C5.54902482,47 6,46.5522847 6,46 C6,45.4438648 5.55641359,45 5.00922203,45 L4,45 Z" id="Combined-Shape"></path>
                    <path d="M105,10 L105,7.99703014 C105,7.45303631 104.552285,7 104,7 C103.443865,7 103,7.4463856 103,7.99703014 L103,10 L100.99703,10 C100.453036,10 100,10.4477153 100,11 C100,11.5561352 100.446386,12 100.99703,12 L103,12 L103,14.0029699 C103,14.5469637 103.447715,15 104,15 C104.556135,15 105,14.5536144 105,14.0029699 L105,12 L107.00297,12 C107.546964,12 108,11.5522847 108,11 C108,10.4438648 107.553614,10 107.00297,10 L105,10 Z" id="Combined-Shape"></path>
                    <path d="M118,58 L118,55.9970301 C118,55.4530363 117.552285,55 117,55 C116.443865,55 116,55.4463856 116,55.9970301 L116,58 L113.99703,58 C113.453036,58 113,58.4477153 113,59 C113,59.5561352 113.446386,60 113.99703,60 L116,60 L116,62.0029699 C116,62.5469637 116.447715,63 117,63 C117.556135,63 118,62.5536144 118,62.0029699 L118,60 L120.00297,60 C120.546964,60 121,59.5522847 121,59 C121,58.4438648 120.553614,58 120.00297,58 L118,58 Z" id="Combined-Shape"></path>
                    <path d="M35,3 L35,1.50639765 C35,0.67646277 34.3284271,0 33.5,0 C32.6657972,0 32,0.674437201 32,1.50639765 L32,3 L30.5063976,3 C29.6764628,3 29,3.67157288 29,4.5 C29,5.33420277 29.6744372,6 30.5063976,6 L32,6 L32,7.49360235 C32,8.32353723 32.6715729,9 33.5,9 C34.3342028,9 35,8.3255628 35,7.49360235 L35,6 L36.4936024,6 C37.3235372,6 38,5.32842712 38,4.5 C38,3.66579723 37.3255628,3 36.4936024,3 L35,3 Z" id="Combined-Shape"></path>
                </g>
            </g>
        </g>
    </g>
</svg>