<svg width="48" height="74" viewBox="0 0 48 74" 
  xmlns="http://www.w3.org/2000/svg">
  <g fill="none" fill-rule="evenodd">
    <path d="M19.432 16.604l-2.828 2.828L0 2.828 2.828 0z" fill="#48A9F9" fill-rule="nonzero" />
    <path d="M48 53.237V65c0 3.133-2.081 6.148-5.096 7-5.214 1.474-10.473 2-15.78 2-4.308 0-8.617-.333-12.926-1.246L48 53.237z" fill="#F66362"/>
    <path d="M48 35.147v13.471L9.135 71.058C7.216 69.716 6 67.395 6 65v-5.989l41.994-24.245c.004.127.006.254.006.381z" fill="#FFB733"/>
    <path d="M44 18.597V23a1 1 0 0 1-1 1h-2.65c3.052.974 5.516 3.553 6.763 6.657L6 54.393V40.537l38-21.94z" fill="#329FF9"/>
    <path d="M40.499 16L6 35.918v-.743C6 30.248 9.245 25.392 13.741 24H11a1 1 0 0 1-1-1v-6a1 1 0 0 1 1-1h29.499z" fill="#666EFF"/>
  </g>
</svg>