<svg width="125" height="120" viewBox="0 0 125 120"
  xmlns="http://www.w3.org/2000/svg"
  xmlns:xlink="http://www.w3.org/1999/xlink">
  <defs>
    <path d="M34.35 8.667C38.8 10.087 42 14.252 42 19.147v29.575a7 7 0 0 1-5.096 6.736c-5.214 1.474-10.473 2.21-15.78 2.21-5.334 0-10.67-.744-16.006-2.234A7 7 0 0 1 0 48.692V19.175c0-4.927 3.245-9.116 7.741-10.508H5a1 1 0 0 1-1-1V1a1 1 0 0 1 1-1h32a1 1 0 0 1 1 1v6.667a1 1 0 0 1-1 1h-2.65z" id="a"/>
  </defs>
  <g fill="none" fill-rule="evenodd">
    <path d="M8.273 114.954c.748 0 1.366-.062 1.853-.187.487-.125.878-.295 1.173-.51.295-.215.499-.47.612-.765.113-.295.17-.623.17-.986 0-.77-.363-1.411-1.088-1.921-.725-.51-1.972-1.06-3.74-1.649a28.2 28.2 0 0 1-2.312-.935 8.522 8.522 0 0 1-2.074-1.326 6.343 6.343 0 0 1-1.496-1.938c-.385-.76-.578-1.683-.578-2.771 0-1.088.204-2.068.612-2.941a6.279 6.279 0 0 1 1.734-2.227c.748-.612 1.655-1.082 2.72-1.411 1.065-.329 2.267-.493 3.604-.493 1.587 0 2.958.17 4.114.51 1.156.34 2.108.714 2.856 1.122l-1.53 4.182a14.49 14.49 0 0 0-2.193-.901c-.805-.26-1.774-.391-2.907-.391-1.27 0-2.182.176-2.737.527-.555.351-.833.89-.833 1.615 0 .43.102.793.306 1.088.204.295.493.561.867.799s.805.453 1.292.646 1.026.391 1.615.595c1.224.453 2.29.901 3.196 1.343.907.442 1.66.958 2.261 1.547.6.59 1.048 1.28 1.343 2.074.295.793.442 1.757.442 2.89 0 2.199-.77 3.904-2.312 5.117-1.541 1.213-3.865 1.819-6.97 1.819-1.043 0-1.983-.062-2.822-.187a18.213 18.213 0 0 1-2.227-.459 12.773 12.773 0 0 1-1.666-.578 12.65 12.65 0 0 1-1.173-.578l1.496-4.216c.703.385 1.57.731 2.601 1.037 1.031.306 2.295.459 3.791.459zM27.166 119a177.19 177.19 0 0 1-2.754-6.154 232.936 232.936 0 0 1-2.584-6.324c-.816-2.085-1.57-4.08-2.261-5.984a205.976 205.976 0 0 1-1.785-5.1h5.848c.453 1.36.946 2.828 1.479 4.403a329.49 329.49 0 0 0 1.632 4.709c.555 1.564 1.093 3.06 1.615 4.488a67.36 67.36 0 0 0 1.462 3.706c.43-1.043.912-2.278 1.445-3.706a329.491 329.491 0 0 0 3.264-9.197 1082.05 1082.05 0 0 0 1.479-4.403h5.644a710.378 710.378 0 0 1-1.802 5.1 213.7 213.7 0 0 1-2.244 5.984 232.936 232.936 0 0 1-2.584 6.324A177.19 177.19 0 0 1 32.266 119h-5.1zm27.052-19.482c-2.47 0-4.255.686-5.355 2.057-1.099 1.371-1.649 3.247-1.649 5.627 0 1.156.136 2.204.408 3.145.272.94.68 1.751 1.224 2.431a5.512 5.512 0 0 0 2.04 1.581c.816.374 1.768.561 2.856.561.59 0 1.094-.011 1.513-.034.42-.023.788-.068 1.105-.136v-8.194h5.304v11.662c-.634.25-1.654.516-3.06.799-1.405.283-3.139.425-5.202.425-1.768 0-3.371-.272-4.81-.816-1.44-.544-2.67-1.337-3.69-2.38s-1.807-2.323-2.363-3.842c-.555-1.519-.833-3.253-.833-5.202 0-1.972.306-3.717.918-5.236.612-1.519 1.451-2.805 2.516-3.859a10.608 10.608 0 0 1 3.757-2.397c1.44-.544 2.975-.816 4.607-.816 1.111 0 2.114.074 3.01.221.895.147 1.665.317 2.311.51a10.73 10.73 0 0 1 1.598.595c.42.204.72.363.901.476l-1.53 4.25a13.827 13.827 0 0 0-2.499-1.003c-.94-.283-1.966-.425-3.077-.425zm24.129 11.56c0 1.156-.13 2.244-.391 3.264a6.564 6.564 0 0 1-1.36 2.669c-.646.76-1.519 1.36-2.618 1.802-1.1.442-2.488.663-4.165.663-1.541 0-2.867-.187-3.978-.561-1.11-.374-2.029-.81-2.754-1.309l1.768-4.114c.657.385 1.36.725 2.108 1.02a6.621 6.621 0 0 0 2.448.442c1.292 0 2.221-.317 2.788-.952.567-.635.85-1.7.85-3.196V95.438h5.304v15.64zM97.444 119a59.196 59.196 0 0 0-.833-2.516c-.306-.861-.607-1.723-.901-2.584h-9.18c-.295.861-.595 1.723-.901 2.584-.306.861-.584 1.7-.833 2.516h-5.508a419.342 419.342 0 0 1 2.516-7.038c.793-2.153 1.57-4.182 2.329-6.086.759-1.904 1.507-3.712 2.244-5.423a119.942 119.942 0 0 1 2.295-5.015h5.066a180.61 180.61 0 0 1 4.539 10.438c.759 1.904 1.535 3.933 2.329 6.086a419.35 419.35 0 0 1 2.516 7.038h-5.678zm-6.358-18.224c-.114.34-.284.805-.51 1.394a1122.368 1122.368 0 0 0-1.751 4.59c-.352.93-.709 1.904-1.071 2.924h6.698c-.363-1.02-.714-1.995-1.054-2.924-.34-.93-.663-1.78-.97-2.55-.305-.77-.572-1.45-.798-2.04-.227-.59-.408-1.054-.544-1.394zm20.864-5.61c3.536 0 6.245.629 8.126 1.887 1.882 1.258 2.822 3.213 2.822 5.865 0 1.655-.38 2.998-1.139 4.029-.759 1.031-1.853 1.842-3.28 2.431.475.59.974 1.264 1.495 2.023.522.76 1.037 1.553 1.547 2.38s1.003 1.689 1.48 2.584c.475.895.917 1.774 1.325 2.635h-5.95l-1.309-2.346a56.406 56.406 0 0 0-1.36-2.312 63.526 63.526 0 0 0-1.377-2.125 23.022 23.022 0 0 0-1.36-1.819h-2.618V119h-5.304V95.778a30.069 30.069 0 0 1 3.587-.476 45.77 45.77 0 0 1 3.315-.136zm.306 4.522c-.385 0-.73.011-1.037.034-.306.023-.595.045-.867.068v6.392h1.496c1.995 0 3.423-.25 4.284-.748.862-.499 1.292-1.349 1.292-2.55 0-1.156-.436-1.978-1.309-2.465-.872-.487-2.159-.731-3.859-.731z" fill="#2A2A2A" fill-rule="nonzero"/>
    <path fill="#48A9F9" fill-rule="nonzero" d="M57.828 17L55 19.828 38.396 3.224 41.224.396z"/>
    <g transform="translate(44 17)">
      <mask id="b" fill="#fff">
        <use xlink:href="#a"/>
      </mask>
      <g mask="url(#b)">
        <path fill="#329FF9" d="M-10.98 30.876l51.96-30 6 10.392-51.96 30z"/>
        <path fill="#666EFF" d="M-23.98 8.359l51.96-30 11 19.053-51.96 30z"/>
        <path fill="#FFB733" d="M-5.579 46.232l54.56-31.5 6 10.392-54.56 31.5z"/>
        <path fill="#F66362" d="M5.02 58.588l51.96-30 11 19.053-51.96 30z"/>
      </g>
    </g>
  </g>
</svg>
