<svg width="55" height="52" xmlns="http://www.w3.org/2000/svg">
  <g fill="none" fill-rule="evenodd">
    <path d="M49.8 7.125H26L20.8 2H5.2C2.34 2 .026 4.306.026 7.125L0 43.875C0 46.694 2.34 49 5.2 49h44.6c2.86 0 5.2-2.306 5.2-5.125V12.25c0-2.819-2.34-5.125-5.2-5.125zM50 46H5a2 2 0 0 1-2-2V12a2 2 0 0 1 2-2h45a2 2 0 0 1 2 2v32a2 2 0 0 1-2 2z" fill="#E0E1EE" fill-rule="nonzero"/><path d="M16.352 32.84c.725 0 1.253-.123 1.584-.368.33-.245.496-.592.496-1.04 0-.267-.056-.496-.168-.688a1.757 1.757 0 0 0-.48-.52 4.02 4.02 0 0 0-.76-.432c-.299-.133-.64-.264-1.024-.392-.384-.139-.755-.29-1.112-.456a3.747 3.747 0 0 1-.944-.616 2.837 2.837 0 0 1-.656-.88c-.165-.341-.248-.752-.248-1.232 0-1.003.347-1.79 1.04-2.36.693-.57 1.637-.856 2.832-.856.693 0 1.31.077 1.848.232.539.155.963.323 1.272.504l-.624 1.632a4.779 4.779 0 0 0-1.192-.464 5.553 5.553 0 0 0-1.336-.16c-.544 0-.968.112-1.272.336-.304.224-.456.539-.456.944 0 .245.05.456.152.632.101.176.245.333.432.472.187.139.405.267.656.384.25.117.525.23.824.336.523.192.99.387 1.4.584.41.197.757.432 1.04.704.283.272.499.592.648.96.15.368.224.813.224 1.336 0 1.003-.355 1.779-1.064 2.328-.71.55-1.747.824-3.112.824a8.237 8.237 0 0 1-2.264-.304 6.87 6.87 0 0 1-.76-.264 4.678 4.678 0 0 1-.512-.248l.592-1.648c.288.16.677.32 1.168.48.49.16 1.083.24 1.776.24zm9.42 1.504a99.291 99.291 0 0 1-2.312-5.424 127.421 127.421 0 0 1-2.072-5.664h2.224l.784 2.288c.267.779.533 1.544.8 2.296.267.752.533 1.48.8 2.184.267.704.528 1.35.784 1.936.245-.587.501-1.23.768-1.928.267-.699.536-1.427.808-2.184a193.333 193.333 0 0 0 1.576-4.592h2.16a151.515 151.515 0 0 1-2.08 5.664 95.306 95.306 0 0 1-2.304 5.424h-1.936zm13.004-9.568c-1.141 0-2.013.355-2.616 1.064-.603.71-.904 1.693-.904 2.952 0 .597.072 1.144.216 1.64.144.496.357.92.64 1.272.283.352.635.627 1.056.824.421.197.915.296 1.48.296.352 0 .656-.013.912-.04.256-.027.459-.061.608-.104v-3.984h2.016v5.328c-.277.107-.747.224-1.408.352-.661.128-1.424.192-2.288.192-.8 0-1.53-.128-2.192-.384a4.547 4.547 0 0 1-1.688-1.12c-.464-.49-.824-1.093-1.08-1.808-.256-.715-.384-1.536-.384-2.464 0-.928.141-1.75.424-2.464.283-.715.67-1.32 1.16-1.816a4.879 4.879 0 0 1 1.728-1.128A5.799 5.799 0 0 1 38.568 23c.512 0 .968.035 1.368.104.4.07.744.147 1.032.232.288.085.525.176.712.272.187.096.317.165.392.208l-.608 1.648a4.896 4.896 0 0 0-1.192-.488 5.507 5.507 0 0 0-1.496-.2z" fill="#9EA3D4" fill-rule="nonzero"/>
  </g>
</svg>