<svg width="55" height="58"
  xmlns="http://www.w3.org/2000/svg">
  <g fill-rule="nonzero" fill="none" opacity=".802">
    <path d="M43 50H33a3 3 0 0 1-3-3V33a3 3 0 0 1 3-3h14a3 3 0 0 1 3 3v11h2V33a5 5 0 0 0-5-5H33a5 5 0 0 0-5 5v14a5 5 0 0 0 5 5h10v-2z" fill="#525BB3" opacity=".702"/>
    <path d="M4 28h16a4 4 0 0 1 4 4v16a4 4 0 0 1-4 4H4a4 4 0 0 1-4-4V32a4 4 0 0 1 4-4zm0 2a2 2 0 0 0-2 2v16a2 2 0 0 0 2 2h16a2 2 0 0 0 2-2V32a2 2 0 0 0-2-2H4zM4 0h16a4 4 0 0 1 4 4v16a4 4 0 0 1-4 4H4a4 4 0 0 1-4-4V4a4 4 0 0 1 4-4zm0 2a2 2 0 0 0-2 2v16a2 2 0 0 0 2 2h16a2 2 0 0 0 2-2V4a2 2 0 0 0-2-2H4zM32 0h16a4 4 0 0 1 4 4v16a4 4 0 0 1-4 4H32a4 4 0 0 1-4-4V4a4 4 0 0 1 4-4zm0 2a2 2 0 0 0-2 2v16a2 2 0 0 0 2 2h16a2 2 0 0 0 2-2V4a2 2 0 0 0-2-2H32z" fill="#CACCDB"/>
    <path d="M46.2 43.3l8.2 8.2-3.694-.001 2.265 5.396-1.844.775-2.369-5.644L46.2 54.5V43.3z" fill="#525BB3" opacity=".702"/>
  </g>
</svg>
