<svg width="20" height="24" viewBox="0 0 20 24"
  xmlns="http://www.w3.org/2000/svg">
  <path d="M19.854 6.147l-6-6A.5.5 0 0 0 13.5 0H.5a.5.5 0 0 0-.5.5v23a.5.5 0 0 0 .5.5h19a.5.5 0 0 0 .5-.5v-17a.5.5 0 0 0-.146-.353zM5.5 19c-.919 0-1.683-.752-1.739-1.712a.499.499 0 1 1 .998-.06c.025.433.351.772.741.772.408 0 .74-.37.74-.827 0-.586-.351-.547-.879-.692-1.089-.204-1.603-.756-1.603-1.656C3.758 13.819 4.539 13 5.5 13c.917 0 1.681.752 1.737 1.71a.499.499 0 1 1-.998.06c-.025-.432-.35-.77-.739-.77-.409 0-.742.37-.742.825 0 .446.229.568.713.658 1.04.197 1.77.587 1.77 1.69C7.24 18.181 6.46 19 5.5 19zm6.479-5.356l-1.5 5a.5.5 0 0 1-.957 0l-1.5-5a.5.5 0 1 1 .957-.288L10 16.76l1.021-3.404a.5.5 0 1 1 .958.288zM15 19c-2 0-2-2.102-2-3 0-.898 0-3 2-3 1.06 0 1.631.429 1.847 1.39a.5.5 0 1 1-.975.22c-.105-.466-.239-.61-.872-.61-.547 0-1 .15-1 2s.453 2 1 2c.231 0 .731 0 .932-1H15a.5.5 0 0 1 0-1h1.5a.5.5 0 0 1 .499.536C16.854 18.573 15.831 19 15 19zM13 7V1l6 6h-6z"/>
</svg>
